<?xml version="1.0" standalone="no"?>
<!DOCTYPE svg PUBLIC "-//W3C//DTD SVG 20010904//EN"
 "http://www.w3.org/TR/2001/REC-SVG-20010904/DTD/svg10.dtd">
<svg version="1.0" xmlns="http://www.w3.org/2000/svg"
 width="582.000000pt" height="589.000000pt" viewBox="0 0 582.000000 589.000000"
 preserveAspectRatio="xMidYMid meet">
<metadata>
Created by potrace 1.16, written by Peter Selinger 2001-2019
</metadata>
<g transform="translate(0.000000,589.000000) scale(0.100000,-0.100000)"
fill="#000000" stroke="none">
<path fill="#40538Cff" d="M2450 5621 c-245 -142 -620 -359 -835 -483 l-390 -226 0 -977 0 -977
380 -220 c1002 -579 1296 -748 1305 -748 5 0 386 218 847 484 l838 484 3 976
2 975 -42 25 c-909 526 -1642 946 -1651 945 -7 0 -212 -116 -457 -258z m1230
-354 l765 -443 0 -889 0 -889 -767 -444 -768 -444 -532 308 c-293 169 -639
369 -768 443 l-235 136 0 890 0 890 245 141 c1053 609 1286 744 1290 744 3 0
349 -200 770 -443z"/>
<path fill="#40538Cff" d="M2745 4676 l-150 -84 -5 -73 -5 -74 -177 -99 -178 -99 0 -166 0 -166
-72 -40 -73 -40 -2 -175 c-2 -96 0 -180 5 -186 4 -7 76 -50 161 -97 l154 -86
38 19 c21 11 43 20 48 20 6 0 99 -49 208 -110 109 -60 205 -110 213 -110 8 0
104 50 214 110 109 61 202 110 207 110 5 0 26 -9 46 -20 l37 -20 66 36 c192
106 250 140 254 151 3 6 6 89 7 184 l2 173 -77 40 -76 39 0 167 0 167 -177 99
-178 99 0 74 c0 55 -4 76 -15 82 -223 120 -299 159 -311 159 -8 0 -81 -38
-164 -84z m276 -52 l101 -57 -98 -53 c-55 -30 -106 -54 -114 -54 -8 0 -60 24
-114 54 l-99 53 69 38 c38 21 83 46 99 56 17 10 36 19 42 19 7 0 58 -25 114
-56z m-251 -177 l95 -52 3 -123 3 -122 -73 41 c-40 22 -88 47 -105 56 l-33 17
0 118 c0 65 3 118 8 118 4 0 50 -24 102 -53z m390 -65 l0 -118 -42 -21 c-24
-12 -71 -38 -106 -58 l-63 -37 3 124 3 123 95 52 c52 29 98 53 103 53 4 0 7
-53 7 -118z m-570 -91 l0 -69 155 -86 c86 -47 160 -86 166 -86 5 0 79 39 164
86 l155 87 0 69 c0 38 4 68 8 66 5 -1 70 -37 145 -78 l137 -75 0 -122 c0 -68
-2 -123 -5 -123 -3 0 -28 12 -55 26 l-49 26 -158 -89 -158 -88 0 -184 0 -183
70 -40 c39 -22 73 -43 78 -47 7 -7 -314 -191 -333 -191 -5 0 -84 42 -175 92
-184 103 -179 94 -85 143 84 43 79 30 81 229 2 147 0 181 -12 187 -8 5 -81 45
-163 90 l-150 82 -47 -26 c-26 -15 -50 -27 -53 -27 -3 0 -6 55 -6 123 l0 122
138 77 c75 42 140 77 145 77 4 1 7 -30 7 -68z m-13 -457 c18 -11 33 -21 33
-24 0 -3 -46 -29 -102 -59 l-102 -54 -103 54 c-56 30 -103 56 -103 59 0 3 46
31 103 62 l102 57 70 -38 c38 -22 85 -47 102 -57z m1015 -3 c16 -9 28 -18 28
-21 0 -3 -47 -29 -103 -59 l-103 -54 -102 53 c-56 30 -102 57 -102 60 0 3 46
31 102 62 l102 57 76 -41 c41 -23 87 -49 102 -57z m-932 -199 l0 -119 -92 -51
c-142 -78 -129 -84 -126 53 l3 118 105 59 c58 32 106 58 108 58 1 0 2 -53 2
-118z m688 16 l32 -20 0 -115 c0 -87 -3 -114 -12 -111 -7 2 -57 27 -110 57
l-98 55 0 118 0 119 78 -42 c42 -23 92 -51 110 -61z m-1078 39 l95 -52 3 -118
c1 -64 0 -117 -4 -117 -4 0 -53 26 -110 57 l-104 58 0 112 c0 84 3 113 13 113
6 0 55 -24 107 -53z m1400 -60 l0 -112 -104 -58 c-57 -31 -106 -57 -110 -57
-4 0 -5 53 -4 117 l3 118 95 52 c52 29 101 53 108 53 9 0 12 -29 12 -113z"/>
<path fill="#40538Cff" d="M4710 1086 l-105 -11 -3 -36 -3 -37 70 -13 71 -12 0 -97 0 -97 -72 5
c-171 10 -315 -74 -391 -228 -30 -60 -32 -72 -32 -170 0 -170 50 -278 157
-339 86 -50 199 -50 300 -1 49 24 58 25 58 7 0 -8 8 -21 18 -30 22 -20 116
-22 177 -3 35 10 40 16 43 44 3 32 3 32 -42 32 l-46 0 0 494 c0 441 -2 495
-16 500 -19 7 -51 6 -184 -8z m13 -400 l27 -18 0 -253 c0 -282 1 -275 -68
-295 -154 -43 -259 60 -270 265 -10 204 80 331 228 322 31 -2 67 -11 83 -21z"/>
<path fill="#40538Cff" d="M138 1053 l-128 -4 0 -38 0 -38 50 -7 50 -7 0 -419 0 -418 -32 -7
c-66 -13 -68 -15 -68 -51 l0 -34 168 -2 c284 -5 354 -1 422 22 156 53 257 158
316 330 30 86 27 301 -4 393 -50 142 -155 237 -303 272 -63 15 -136 16 -471 8z
m393 -94 c88 -23 170 -109 205 -216 15 -47 19 -87 19 -208 -1 -132 -3 -157
-24 -208 -31 -79 -87 -146 -152 -182 -50 -28 -61 -30 -159 -30 -58 0 -113 3
-123 7 -16 7 -17 34 -15 425 l3 418 45 6 c52 8 149 2 201 -12z"/>
<path fill="#40538Cff" d="M1379 771 c-168 -54 -269 -217 -256 -413 7 -115 37 -189 101 -254 68
-67 129 -89 251 -88 98 0 214 28 256 62 20 17 21 22 10 49 l-12 29 -67 -17
c-135 -36 -233 -21 -298 45 -41 41 -74 118 -74 173 l0 23 238 2 237 3 3 94 c4
120 -14 178 -73 237 -72 72 -196 93 -316 55z m161 -87 c44 -38 60 -74 63 -146
l2 -63 -159 -3 -159 -3 7 43 c8 49 39 124 64 152 45 51 133 60 182 20z"/>
<path fill="#40538Cff" d="M5419 771 c-168 -54 -269 -217 -256 -413 7 -115 37 -189 101 -254 68
-67 129 -89 251 -88 98 0 214 28 256 62 20 17 21 22 10 49 l-12 29 -67 -17
c-135 -36 -233 -21 -298 45 -41 41 -74 118 -74 173 l0 23 238 2 237 3 3 94 c4
120 -14 178 -73 237 -72 72 -196 93 -316 55z m161 -87 c44 -38 60 -74 63 -146
l2 -63 -159 -3 -159 -3 7 43 c8 49 39 124 64 152 45 51 133 60 182 20z"/>
<path fill="#40538Cff" d="M2068 753 c-86 -26 -88 -27 -88 -57 0 -26 7 -36 45 -58 l45 -28 -2
-247 -3 -247 -42 -9 c-41 -8 -43 -10 -43 -43 l0 -34 175 0 175 0 0 34 c0 33
-2 35 -44 41 -25 4 -46 12 -48 19 -3 9 -2 425 1 479 1 23 69 54 136 62 63 8
113 -16 137 -65 16 -30 18 -66 18 -262 l0 -228 -22 0 c-53 0 -68 -11 -68 -46
l0 -34 180 0 180 0 0 35 c0 34 -1 34 -50 41 l-50 7 0 222 c0 122 -3 237 -6
254 -6 29 -4 32 42 53 63 27 150 30 188 5 51 -34 58 -70 60 -312 l1 -219 -42
-9 c-41 -8 -43 -10 -43 -43 l0 -34 180 0 180 0 0 34 c0 34 0 35 -54 41 l-54 7
-4 252 -3 252 -30 60 c-38 75 -88 104 -181 104 -72 0 -176 -29 -228 -65 l-37
-25 -27 31 c-36 43 -79 59 -161 59 -79 0 -153 -23 -223 -70 l-43 -29 -5 47
c-4 41 -8 47 -30 49 -14 1 -64 -10 -112 -24z"/>
<path fill="#40538Cff" d="M3588 765 c-56 -14 -138 -50 -138 -61 0 -2 6 -20 14 -38 l14 -33 73
24 c128 43 242 23 275 -48 15 -30 25 -117 16 -123 -4 -2 -42 -9 -84 -15 -157
-22 -278 -83 -320 -161 -20 -39 -24 -122 -7 -167 48 -128 262 -174 387 -83
l40 29 11 -30 c13 -38 51 -52 120 -45 75 9 106 25 106 56 0 22 -5 25 -42 28
l-43 3 0 243 c0 317 -11 355 -120 412 -47 24 -221 29 -302 9z m257 -393 c-2
-9 -4 -63 -4 -119 l-1 -102 -29 -15 c-71 -37 -166 -26 -203 25 -24 32 -28 106
-9 143 19 35 107 77 179 85 66 8 71 7 67 -17z"/>
</g>
</svg>
